<svg xmlns="http://www.w3.org/2000/svg" viewBox="0 0 301.43 97.24"><defs><style>.a{fill:#bb0611;}.b{fill:#007e34;}.c{fill:#231815;}</style></defs><path class="a" d="M213.69,35.18c14,40.75-32.35,62.06-32.35,62.06,6.92-4.35,19.13-14.28,19.13-27.63,0-7.31-1.69-13.21-5.72-21.14-6.11-12.17-6.07-16.41-3.62-22.95,1-2.77,3.07-5.68,7.21-9.34h13.54C210,22.13,211.38,28.45,213.69,35.18Z"/><path class="b" d="M200.47,13.88h12C216.29,6.1,226,0,226,0,214.66,5.51,205.59,9.76,200.47,13.88Z"/><polygon class="c" points="168.42 79.54 157.83 79.54 139.29 39.81 152.53 39.81 163.01 64.97 173.72 39.81 186.96 39.81 168.42 79.54"/><rect class="c" x="222.49" y="26.57" width="11.66" height="52.97"/><rect class="c" x="240.61" y="26.57" width="11.66" height="52.97"/><path class="c" d="M42.35,75.81a17.09,17.09,0,0,0,6.27-13.49c0-5.28-1.81-9.38-5.38-12.2C41,48.34,37.6,46.91,33.19,45.87L23.4,43.56c-4.56-1.06-6.4-1.78-7.15-2.2a3.75,3.75,0,0,1-2.17-3.55,4.71,4.71,0,0,1,2.29-4.2A12.26,12.26,0,0,1,23.16,32a14.5,14.5,0,0,1,6.47,1.29,7.68,7.68,0,0,1,4.26,6.6H47.15a18.78,18.78,0,0,0-7.33-14.78A26,26,0,0,0,24,20.19c-7.35,0-13,1.76-16.9,5.23A17.12,17.12,0,0,0,1.21,38.64c0,5.81,2.05,10.16,6.09,12.92C9.66,53.2,13.78,54.65,19.9,56l6,1.33a26,26,0,0,1,7.42,2.47,3.72,3.72,0,0,1,1.94,3.39c0,2.73-1.36,4.47-4.28,5.49a20.57,20.57,0,0,1-6.49.85c-4.35,0-7.29-1.15-9.14-3.07A7,7,0,0,1,13.26,62H0c0,6.44,2.87,10.7,7,14,4.38,3.45,10.42,5.2,18,5.2S38.24,79.33,42.35,75.81Z"/><path class="c" d="M81.89,61.93a8.64,8.64,0,0,1-8.39,6.14A8.8,8.8,0,1,1,81.89,56.6h13.3a21.86,21.86,0,1,0,0,5.33Z"/><path class="c" d="M299.63,50.36a21.23,21.23,0,0,0-4.88-6.86A22.94,22.94,0,0,0,287.67,39a22.43,22.43,0,0,0-8.38-1.61,21.77,21.77,0,0,0-8.61,1.72,23,23,0,0,0-7,4.65,21.76,21.76,0,0,0-4.74,6.92,21.91,21.91,0,0,0,0,17,21.75,21.75,0,0,0,4.7,6.92A22.38,22.38,0,0,0,279.35,81,28,28,0,0,0,288,79.71a28.51,28.51,0,0,0,8.33-4.5l.92-.68-7.7-7.69-.69.61a12.25,12.25,0,0,1-4.13,2.31,15.19,15.19,0,0,1-5,.87A11,11,0,0,1,276,70a10.81,10.81,0,0,1-3-1.63,9.14,9.14,0,0,1-2.21-2.22c-.36-.55-.67-1.06-.94-1.51h31l.19-1.12c.09-.72.18-1.51.26-2.22s.1-1.47.1-2.13A21.44,21.44,0,0,0,299.63,50.36Zm-29.75,3.8a13.8,13.8,0,0,1,3.3-4.21,9.47,9.47,0,0,1,6-2,9.69,9.69,0,0,1,6.14,2,13.68,13.68,0,0,1,3.33,4.23Z"/><path class="c" d="M120.05,37.4A21.86,21.86,0,1,0,141.9,59.25,21.85,21.85,0,0,0,120.05,37.4Zm0,31.52a9.67,9.67,0,1,1,9.67-9.67A9.67,9.67,0,0,1,120.05,68.92Z"/></svg>